<svg xmlns="http://www.w3.org/2000/svg" viewBox="0 0 32 32" fill="none">
  <rect width="32" height="32" rx="4" fill="#00A4E9"/>
  <path d="M8 6C8 5.44772 8.44772 5 9 5H20C21.1046 5 22 5.89543 22 7V25C22 25.5523 21.5523 26 21 26H9C8.44772 26 8 25.5523 8 25V6Z" fill="white" fill-opacity="0.2"/>
  <path d="M8 6C8 5.44772 8.44772 5 9 5H20C21.1046 5 22 5.89543 22 7V25C22 25.5523 21.5523 26 21 26H9C8.44772 26 8 25.5523 8 25V6Z" stroke="white" stroke-width="1.5"/>
  <path d="M22 7V25C22 25.5523 21.5523 26 21 26H9C8.44772 26 8 25.5523 8 25" stroke="white" stroke-width="1.5"/>
  <path d="M15 8V24" stroke="white" stroke-width="1.5" stroke-linecap="round"/>
  <circle cx="15" cy="16" r="3" fill="white"/>
  <text x="15" y="11" font-family="system-ui, sans-serif" font-size="4" font-weight="bold" fill="white" text-anchor="middle">K</text>
</svg>